<?xml version="1.0" encoding="utf-8"?>
<!-- Generator: Adobe Illustrator 23.0.6, SVG Export Plug-In . SVG Version: 6.00 Build 0)  -->
<svg version="1.1" id="Layer_1" xmlns="http://www.w3.org/2000/svg" xmlns:xlink="http://www.w3.org/1999/xlink" x="0px" y="0px"
	 viewBox="0 0 438.6 500" style="enable-background:new 0 0 438.6 500;" xml:space="preserve">
<style type="text/css">
	.st0{fill:#D6D8E5;}
	.st1{fill:#FAFBFC;}
	.st2{fill:#E9EAF2;}
	.st3{fill:#87C0CD;}
	.st4{fill:#B0B3C1;}
	.st5{fill:#FFFFFF;}
	.st6{fill:#B1B4C4;}
	.st7{fill:#A1A5B5;}
	.st8{opacity:0.1;fill:#3E7EFF;enable-background:new    ;}
	.st9{opacity:0.1;enable-background:new    ;}
	.st10{opacity:0.3;fill:#D6D8E5;enable-background:new    ;}
	.st11{opacity:0.4;fill:#D6D8E5;enable-background:new    ;}
	.st12{fill:#B1B6C4;}
	.st13{fill:#C4C7D6;}
	.st14{fill:#38226D;}
	.st15{fill:#9C73FF;}
	.st16{fill:#FFCEA9;}
	.st17{fill:#EDEDED;}
	.st18{fill:#E5E5E5;}
	.st19{fill:#F4F4F4;}
	.st20{fill:#BFBFBF;}
	.st21{fill:#3A2C6D;}
	.st22{fill:#DCEEFF;}
	.st23{fill:#DBDBDB;}
	.st24{fill:#1E3779;}
	.st25{fill:#031F60;}
</style>
<title>Search_SVG</title>
<g id="Слой_2">
	<g id="Слой_1-2">
		<path class="st0" d="M388.9,204.4L119.3,48.8c-0.9-0.6-2.1-0.8-3.2-0.4l0,0l0,0l-0.3,0.2l-2.9,1.7l1.7,2.4v181.3
			c0.2,3.3,1.9,6.4,4.7,8.2l269.1,155.4l0.4,2.4l3.3-1.9l0,0c1-0.7,1.5-1.9,1.4-3.1V212.6C393.4,209.3,391.6,206.3,388.9,204.4z"/>
		<path class="st1" d="M390.3,214.5v182.4c0,3-2.1,4.2-4.7,2.7L116.1,244c-2.8-1.8-4.5-4.9-4.7-8.2V53.5c0-3,2.1-4.2,4.7-2.7
			l269.5,155.6C388.4,208.2,390.1,211.2,390.3,214.5z"/>
		<polygon class="st2" points="287.5,178.1 122,82.5 122,73 287.5,168.6 		"/>
		<polygon class="st2" points="278.9,185 122,94.4 122,89.6 278.9,180.2 		"/>
		<polygon class="st2" points="260.6,183 122,102.9 122,98.2 260.6,178.2 		"/>
		<polygon class="st2" points="251.8,186.4 122,111.5 122,106.7 251.8,181.7 		"/>
		<polygon class="st2" points="379.2,302 318.4,266.9 318.4,257.4 379.2,292.5 		"/>
		<polygon class="st2" points="376.1,312.1 318.4,278.8 318.4,274 376.1,307.3 		"/>
		<polygon class="st2" points="369.4,316.7 318.4,287.3 318.4,282.5 369.4,312 		"/>
		<polygon class="st2" points="366.1,323.4 318.4,295.9 318.4,291.1 366.1,318.6 		"/>
		<polygon class="st2" points="287.5,229.8 122,134.3 122,124.7 287.5,220.3 		"/>
		<polygon class="st2" points="278.9,236.7 122,146.1 122,141.4 278.9,231.9 		"/>
		<polygon class="st2" points="260.6,234.7 122,154.7 122,149.9 260.6,229.9 		"/>
		<polygon class="st2" points="251.8,238.2 122,163.2 122,158.4 251.8,233.4 		"/>
		<polygon class="st2" points="287.5,281.5 122,186 122,176.4 287.5,272 		"/>
		<polygon class="st2" points="278.9,288.5 122,197.9 122,193.1 278.9,283.7 		"/>
		<polygon class="st2" points="260.6,286.5 122,206.4 122,201.6 260.6,281.7 		"/>
		<polygon class="st2" points="251.8,289.9 122,214.9 122,210.2 251.8,285.1 		"/>
		<polygon class="st2" points="287.5,333.3 122,237.7 122,228.2 287.5,323.7 		"/>
		<polygon class="st2" points="278.9,335.4 278.9,338 122,247.4 122,244.8 		"/>
		<path class="st2" d="M377.3,281.7l-57-32.9c-1.2-0.8-1.9-2.2-1.9-3.6v-56.2c0-1.4,0.9-2,1.9-1.4l57,32.9c1.2,0.8,1.9,2.2,1.9,3.6
			v56.2C379.2,281.6,378.4,282.3,377.3,281.7z"/>
		<path class="st0" d="M388.9,156.2L119.3,0.6c-0.9-0.6-2-0.7-3-0.3l0,0l0,0h-0.1l-3,1.7l1.3,2.1v29.6c0,3.5,2.1,7.5,4.7,9
			l269,155.3l0.1,2.5l3.4-1.9l0.1-0.1l0.1-0.1l0,0c1-0.6,1.6-1.9,1.6-3.8v-29.5C393.6,161.7,391.5,157.7,388.9,156.2z"/>
		<path class="st1" d="M385.6,200.1L116.1,44.5c-2.6-1.5-4.7-5.5-4.7-9V6c0-3.5,2.1-5.1,4.7-3.6L385.6,158c2.6,1.5,4.7,5.6,4.7,9
			v29.5C390.3,200,388.2,201.6,385.6,200.1z"/>
		<path class="st2" d="M377.3,182.1L123.9,35.8c-1.2-0.8-1.8-2.2-1.9-3.6V21.5c0-1.4,0.8-2,1.9-1.4l253.4,146.3
			c1.2,0.8,1.9,2.2,1.9,3.6v10.6C379.2,182.1,378.4,182.7,377.3,182.1z"/>
		<path class="st3" d="M377.8,182.4l-16.4-9.5v-15.6l16.4,9.5c1.2,0.8,1.9,2.2,1.9,3.6v10.6C379.7,182.3,378.8,183,377.8,182.4z"/>
		<path class="st4" d="M130.5,31.5c-0.6-0.5-1.1-1-1.5-1.6c-0.3-0.4-0.4-0.9-0.4-1.4c0-0.5,0.2-0.9,0.5-1c0.5-0.1,1,0,1.4,0.3
			c0.8,0.5,1.4,1.2,1.8,2c0.2,0.4,0.3,0.8,0.3,1.2l-0.8-0.5c0-0.4-0.1-0.8-0.3-1.1c-0.2-0.4-0.6-0.7-0.9-0.9
			c-0.2-0.2-0.6-0.3-0.9-0.2c-0.2,0.1-0.3,0.3-0.3,0.6c0,0.3,0.1,0.6,0.3,0.9c0.3,0.4,0.6,0.8,1,1.1c0.4,0.4,0.8,0.8,1.2,1.2
			c0.2,0.3,0.5,0.6,0.6,1c0.1,0.3,0.2,0.7,0.2,1c0,0.5-0.2,0.9-0.6,1c-0.5,0.1-1-0.1-1.5-0.4c-0.4-0.2-0.8-0.6-1.1-0.9
			c-0.3-0.4-0.6-0.8-0.8-1.2c-0.2-0.4-0.3-0.8-0.3-1.2l0.8,0.5c0,0.4,0.1,0.8,0.4,1.2c0.3,0.4,0.6,0.7,1,1c0.3,0.2,0.6,0.3,0.9,0.2
			c0.2-0.1,0.3-0.3,0.3-0.6c0-0.3-0.1-0.7-0.3-0.9C131.2,32.3,130.9,31.9,130.5,31.5z"/>
		<path class="st4" d="M135.3,37.4c-0.6-0.4-1.1-0.9-1.4-1.5c-0.4-0.6-0.5-1.4-0.6-2.1v-0.2c0-0.4,0.1-0.8,0.2-1.2
			c0.1-0.3,0.4-0.5,0.7-0.5c0.3-0.1,0.7,0,1,0.2c0.6,0.3,1,0.8,1.3,1.4c0.3,0.7,0.5,1.4,0.5,2.1V36l-3-1.7c0,0.5,0.1,1,0.4,1.4
			c0.2,0.4,0.5,0.8,0.9,1c0.2,0.1,0.4,0.2,0.7,0.2c0.2,0,0.3-0.1,0.5-0.2l0.4,0.7C136.6,37.8,136,37.8,135.3,37.4z M135.2,32.9
			c-0.2-0.2-0.5-0.2-0.8-0.1c-0.2,0.2-0.4,0.5-0.4,0.8l2.2,1.2v-0.1c0-0.4-0.1-0.8-0.3-1.2C135.8,33.3,135.5,33.1,135.2,32.9z"/>
		<path class="st4" d="M140.5,40.3c-0.1-0.2-0.1-0.4-0.1-0.6c-0.4,0.2-0.9,0.2-1.2-0.1c-0.4-0.2-0.8-0.6-1-1
			c-0.3-0.4-0.4-0.8-0.4-1.3c0-0.5,0.2-0.8,0.5-0.9c0.5-0.1,1,0.1,1.4,0.4l0.7,0.4v-0.4c0-0.3-0.1-0.6-0.2-0.8
			c-0.2-0.3-0.4-0.5-0.7-0.7c-0.2-0.1-0.4-0.2-0.7-0.2c-0.2,0.1-0.3,0.2-0.3,0.4l-0.8-0.4c0-0.2,0.1-0.4,0.2-0.6
			c0.2-0.1,0.4-0.2,0.6-0.2c0.3,0,0.6,0.1,0.9,0.3c0.5,0.3,0.9,0.6,1.2,1.1c0.3,0.4,0.4,0.9,0.4,1.4v2.3c0,0.4,0,0.8,0.1,1.2v0.1
			L140.5,40.3z M139.3,39c0.2,0.1,0.4,0.2,0.7,0.2c0.2,0,0.4-0.1,0.4-0.3v-1l-0.6-0.3c-0.9-0.5-1.4-0.5-1.4,0.1
			c0,0.3,0.1,0.5,0.2,0.8C138.8,38.7,139,38.9,139.3,39z"/>
		<path class="st4" d="M144.4,38.3c-0.1-0.1-0.2-0.2-0.4-0.2c-0.5-0.3-0.8-0.2-1,0.2v3.5l-0.7-0.4v-5l0.7,0.4v0.6
			c0.2-0.3,0.6-0.3,1-0.1c0.1,0.1,0.2,0.2,0.3,0.2L144.4,38.3z"/>
		<path class="st4" d="M146.7,43.3c0.2,0.1,0.5,0.2,0.7,0.1c0.2-0.1,0.3-0.3,0.3-0.5l0.7,0.4c0,0.2-0.1,0.5-0.2,0.7
			c-0.2,0.2-0.4,0.3-0.6,0.3c-0.3,0-0.6-0.1-0.8-0.2c-0.6-0.4-1.1-0.9-1.4-1.5c-0.4-0.7-0.5-1.4-0.5-2.2v-0.2c0-0.4,0.1-0.8,0.2-1.2
			c0.1-0.3,0.4-0.5,0.7-0.5c0.4,0,0.7,0.1,1,0.3c0.5,0.3,0.9,0.7,1.2,1.2c0.3,0.5,0.5,1,0.5,1.6l-0.7-0.4c0-0.4-0.1-0.7-0.3-1
			c-0.2-0.3-0.4-0.5-0.7-0.7c-0.4-0.2-0.7-0.2-0.9,0c-0.2,0.3-0.4,0.8-0.3,1.2v0.2c0,0.5,0.1,1,0.3,1.5
			C146,42.7,146.3,43.1,146.7,43.3z"/>
		<path class="st4" d="M150,41.4c0.4-0.3,0.9-0.3,1.3,0c0.9,0.5,1.4,1.5,1.4,2.6v3.3l-0.7-0.4v-3.3c0-0.3-0.1-0.6-0.2-0.9
			c-0.2-0.3-0.4-0.5-0.7-0.7c-0.2-0.1-0.4-0.2-0.6-0.1c-0.2,0-0.3,0.2-0.4,0.3v3.5l-0.7-0.4v-7l0.7,0.4L150,41.4z"/>
		<path class="st4" d="M153.8,47.5c0-0.1,0-0.2,0.1-0.3c0.1,0,0.2,0,0.3,0c0.1,0.1,0.3,0.2,0.3,0.3c0.1,0.1,0.1,0.3,0.1,0.4
			c0,0.1,0,0.2-0.1,0.3c-0.1,0-0.2,0-0.3,0c-0.1-0.1-0.3-0.2-0.3-0.3C153.8,47.8,153.8,47.7,153.8,47.5z"/>
		<path class="st4" d="M155.9,48.8c0-0.1,0-0.2,0.1-0.3c0.1-0.1,0.2,0,0.3,0c0.3,0.2,0.5,0.5,0.5,0.8c0,0.1,0,0.2-0.1,0.3
			c-0.1,0-0.2,0-0.3,0c-0.1-0.1-0.3-0.2-0.3-0.3C155.9,49.1,155.9,48.9,155.9,48.8z"/>
		<path class="st4" d="M158.1,50c0-0.1,0-0.2,0.1-0.3c0.1-0.1,0.2,0,0.3,0c0.1,0.1,0.3,0.2,0.3,0.3c0.1,0.1,0.1,0.3,0.1,0.4
			c0,0.1,0,0.2-0.1,0.3c-0.1,0-0.2,0-0.3-0.1c-0.1-0.1-0.3-0.2-0.3-0.3C158.1,50.3,158.1,50.1,158.1,50z"/>
		<g id="Search">
			<path class="st5" d="M374.2,175.8l-1.6-2.8c0.5-0.5,0.8-1.3,0.7-2c-0.1-2.4-1.4-4.5-3.4-5.8c-1.9-1.1-3.4-0.2-3.4,1.9
				c0.1,2.4,1.4,4.6,3.4,5.9c0.6,0.4,1.3,0.5,1.9,0.4l1.6,2.8c0.2,0.3,0.5,0.5,0.7,0.4S374.4,176.1,374.2,175.8z M371.8,172.1
				c-0.1,0-0.1,0-0.2,0c0,0-0.1,0.1-0.1,0.1c-0.5,0.1-1.1,0-1.5-0.2c-1.5-1-2.4-2.6-2.5-4.4c0-1.6,1.1-2.3,2.5-1.4
				c1.5,1,2.4,2.6,2.5,4.4C372.6,171.2,372.3,171.7,371.8,172.1z"/>
		</g>
		<path class="st0" d="M338.4,219.6c-16.2-27.3-43.5-41-60.9-30.7l-15.2,8.7l5.8,9.7c0.9-1.5,2-2.9,3.3-4.1
			c14.7-4.8,35,6.6,47.5,27.6s12.8,44.3,1.5,54.9c-1.5,0.5-3,0.8-4.5,0.9l5.7,9.4l14.6-8.4C353.6,277.5,354.6,246.9,338.4,219.6z"/>
		<path class="st6" d="M323.9,228c-16.2-27.3-43.5-41-60.9-30.7s-18.4,40.9-2.2,68.2s43.5,41,60.9,30.7S340,255.3,323.9,228z
			 M320.5,285.8c-14.8,4.8-35-6.6-47.5-27.6s-12.8-44.3-1.5-54.9c14.7-4.8,35,6.6,47.5,27.6S331.7,275.2,320.5,285.8L320.5,285.8z"
			/>
		<path class="st7" d="M273,258.2c-12.5-21-12.8-44.3-1.5-54.9c6.4-2.1,13.9-1.1,21.4,2.4c-9.1-4.3-18.3-4.9-25.5-0.6
			c-14.9,8.8-15.8,34.7-2.1,57.7c13.7,23.1,36.8,34.6,51.7,25.8c1.3-0.8,2.5-1.7,3.6-2.8C305.7,290.6,285.5,279.2,273,258.2z"/>
		<path class="st8" d="M319,230.9c-12.5-21-32.8-32.4-47.5-27.6c-11.2,10.6-11,33.9,1.5,54.9s32.8,32.4,47.5,27.6
			C331.7,275.2,331.4,251.9,319,230.9z"/>
		<polygon class="st6" points="339.3,264.7 372,283.6 372,292 339.3,273.1 		"/>
		<polygon class="st0" points="346.6,260.5 379.3,279.4 372,283.6 339.3,264.7 		"/>
		<path class="st3" d="M365,278.8c3.1-5.2,8.3-7.8,11.6-5.9l59.4,34.5l-11.3,18.8l-59.3-34.5C362.1,289.8,362,284,365,278.8z"/>
		<path class="st3" d="M436.4,320.4c-3.1,5.2-8.3,7.8-11.6,5.9s-3.5-7.8-0.4-13s8.3-7.8,11.6-5.9S439.5,315.2,436.4,320.4z"/>
		<path class="st9" d="M436.4,320.4c-3.1,5.2-8.3,7.8-11.6,5.9s-3.5-7.8-0.4-13s8.3-7.8,11.6-5.9S439.5,315.2,436.4,320.4z"/>
		<path class="st10" d="M367.2,427.7L126.3,284c-1.2-0.7-1-1.8,0.3-2.6l0,0c1.4-0.8,3.1-0.8,4.5-0.2L372,424.9
			c1.2,0.7,1,1.8-0.3,2.6l0,0C370.3,428.3,368.7,428.4,367.2,427.7z"/>
		<polygon class="st11" points="37.5,500 0,478.5 56.1,446.4 93.6,467.9 		"/>
		<polygon class="st0" points="38.3,456.8 7.2,438.8 38.3,420.9 69.3,438.8 		"/>
		<polygon class="st12" points="38.3,492.6 7.2,474.7 7.2,438.8 38.3,456.8 		"/>
		<polygon class="st13" points="69.3,474.7 38.3,492.6 38.3,456.8 69.3,438.8 		"/>
		<g id="Men_5">
			<path class="st14" d="M80,463.4c2.7,0.7,5.6,0.4,8-1c1.9,0.1,12.4-4.4,13.8-0.7c1.2,3.3-3.3,6.4-5.7,6.9
				c-5.3,1.3-9.2,3.9-11.3,4.4c-1.6,0.3-3.6,0.6-4.9-0.7C78.4,470.9,78.5,465.4,80,463.4z"/>
			<path class="st15" d="M84.8,472.1c2.1-0.5,6-3.1,11.3-4.4c2-0.5,5.5-2.7,5.9-5.4c0.5,3-3.6,5.7-5.9,6.3
				c-5.3,1.3-9.2,3.9-11.3,4.4c-1.6,0.3-3.6,0.6-4.9-0.7c-0.3-0.4-0.6-0.8-0.7-1.3C80.8,472.3,82.9,472.7,84.8,472.1z"/>
			<path class="st14" d="M61.2,453.4c2.7,0.7,5.6,0.4,8-1c1.9,0.1,12.4-4.4,13.8-0.7c1.2,3.3-3.3,6.3-5.7,6.9
				c-5.3,1.3-9.2,4-11.3,4.4c-1.6,0.3-3.6,0.5-4.9-0.7C59.5,460.8,59.7,455.3,61.2,453.4z"/>
			<path class="st15" d="M66,462.1c2.1-0.5,6-3.1,11.3-4.4c2-0.5,5.5-2.7,5.9-5.4c0.5,3-3.6,5.7-5.9,6.3c-5.3,1.3-9.2,3.9-11.3,4.3
				c-1.6,0.3-3.6,0.5-4.9-0.7c-0.3-0.4-0.6-0.8-0.7-1.3C62,462.3,64.1,462.7,66,462.1z"/>
			<path class="st3" d="M31.8,440.3c8.2,3.6,15.8,4.1,22.1,0.8l6.5-3.8c0.4,8.4,0.8,16.5,0.8,16.5s5,3.8,8.9,0.4
				c0,0,0.8-11.8,1.6-23.4l6.8-3.9c-0.2,0.6-0.2,1.3-0.3,1.9c0.1,2.2,1.6,34.9,1.6,34.9s5,3,8.9-0.4c0,0,2.6-37.9,3.2-44
				c0.7-6.8-6.9-10.2-11.7-8.4c-1.1,0.4-3.8,1.4-7.3,2.7c0.2-1.9,0.3-3.4,0.4-4.2c0.7-6.8-6.9-10.2-11.7-8.4
				c-4.4,1.6-33.8,12.6-33.8,12.6c0.2,2.8,0.5,5.6,1,8.4l-11.6-1C16.6,432.1,23.6,436.7,31.8,440.3z M52.1,421.5l7.8-4.5
				c-0.1,0.5-0.2,1.1-0.2,1.7L52.1,421.5z"/>
			<path class="st16" d="M10.9,388c0,0,1,14.5,2.9,16.5S22,408,22,408l5,8.1c0,0-4.5-25.9-5.5-26.5S10.9,388,10.9,388z"/>
			<path id="_Контур_" class="st17" d="M20.4,371.9c-2.5-1.2-5.5-0.3-6.9,2.1c-1.8,3-3.7,13.3-3.9,15.1c0,0,2.6,3.5,6.4,2.9
				L20.4,371.9z"/>
			<path id="_Контур_2" class="st16" d="M22.1,372.1c2.5,0.1,4.4,0.8,4.7,0c0.3-1.3,0.5-2.6,0.6-3.9c-0.3-0.7-0.5-1.5-0.5-1.5
				c-3.1-1.9-4.1-5.3-4.5-9.3c-0.7-6.8,2.9-12.7,9.7-13.4c6.3-0.7,11,3.8,12.3,9.9c0.7,3,2,8.7,0.2,13.7c-1,2.8-2.3,5-3.6,5.4
				c-1.3,0-2.5-0.1-3.8-0.3l0,0c0,0-0.3,1.9-0.6,3.1s-0.1,1.8,2.2,3.3s-3.6,4.5-7.5,4.2s-8.4-2.7-9.6-5.2
				C20.3,375.3,20.4,372,22.1,372.1z"/>
			<g id="_Группа_">
				<g id="_Группа_2">
					<g id="_Группа_3">
						<path id="_Контур_3" class="st18" d="M85.4,416.3L85.4,416.3c0,0.7-0.4,1.4-1,1.8l-19.1,11c-0.6,0.4-1.4,0.4-2,0
							l-26.8-15.4c-0.6-0.4-1-1-1-1.8v-0.1L85.4,416.3z"/>
						<path id="_Контур_4" class="st18" d="M84.4,418.1l-19.1,11c-0.3,0.2-0.6,0.3-1,0.3v-13h21.1
							C85.4,417.1,85.1,417.7,84.4,418.1z"/>
						<g id="_Группа_4">
							<path id="_Контур_5" class="st19" d="M65.1,428.1c-0.4,0.2-1,0.2-1.4,0l-27.8-16c-0.3-0.2-0.3-0.5,0-0.7l20.5-11.8
								l29.1,16.8L65.1,428.1z"/>
						</g>
						<g id="_Группа_5">
							<polygon id="_Контур_6" class="st20" points="47.3,416.3 47.4,416.4 56.3,421.5 61.2,418.7 61.3,418.6 52.3,413.4 
															"/>
							<polygon id="_Контур_7" class="st18" points="47.4,416.4 56.3,421.5 61.2,418.7 52.3,413.6 							"/>
						</g>
						<path class="st21" d="M77.9,417.1l1.3,0.7c0.1,0.1,0.3,0.1,0.4,0l1.2-0.7c0.1-0.1,0.1-0.2,0-0.2l-1.3-0.7
							c-0.1-0.1-0.3-0.1-0.4,0l-1.2,0.7C77.8,417,77.8,417.1,77.9,417.1z"/>
						<path class="st21" d="M76.1,416.1l1.3,0.7c0.1,0.1,0.3,0.1,0.4,0l1.2-0.7c0.1-0.1,0.1-0.2,0-0.2l-1.3-0.7
							c-0.1-0.1-0.3-0.1-0.4,0l-1.2,0.7C76,415.9,76,416,76.1,416.1z"/>
						<path class="st21" d="M74.3,415l1.3,0.7c0.1,0.1,0.3,0.1,0.4,0l1.2-0.7c0.1-0.1,0.1-0.2,0-0.2l-1.3-0.7
							c-0.1-0.1-0.3-0.1-0.4,0l-1.2,0.7C74.2,414.9,74.2,415,74.3,415z"/>
						<path class="st21" d="M72.5,414l1.3,0.7c0.1,0.1,0.3,0.1,0.4,0l1.2-0.7c0.1-0.1,0.1-0.2,0-0.2l-1.2-0.8
							c-0.1-0.1-0.3-0.1-0.4,0l-1.2,0.7C72.4,413.8,72.3,413.9,72.5,414z"/>
						<path class="st21" d="M70.6,413l1.3,0.7c0.1,0.1,0.3,0.1,0.4,0l1.2-0.7c0.1-0.1,0.1-0.2,0-0.2l-1.3-0.8
							c-0.1-0.1-0.3-0.1-0.4,0l-1.2,0.7C70.6,412.8,70.5,412.9,70.6,413z"/>
						<path class="st21" d="M68.8,411.9l1.3,0.7c0.1,0.1,0.3,0.1,0.4,0l1.2-0.7c0.1-0.1,0.1-0.2,0-0.2l-1.3-0.7
							c-0.1-0.1-0.3-0.1-0.4,0l-1.2,0.7C68.7,411.7,68.7,411.8,68.8,411.9z"/>
						<path class="st21" d="M67,410.9l1.3,0.8c0.1,0.1,0.3,0.1,0.4,0l1.2-0.7c0.1-0.1,0.1-0.2,0-0.2l-1.3-0.8
							c-0.1-0.1-0.3-0.1-0.4,0l-1.2,0.7C66.9,410.7,66.9,410.8,67,410.9z"/>
						<path class="st21" d="M65.2,409.8l1.3,0.7c0.1,0.1,0.3,0.1,0.4,0l1.2-0.7c0.1-0.1,0.1-0.2,0-0.2l-1.3-0.7
							c-0.1-0.1-0.3-0.1-0.4,0l-1.2,0.7C65.1,409.6,65.1,409.8,65.2,409.8z"/>
						<path class="st21" d="M63.4,408.8l1.3,0.7c0.1,0.1,0.3,0.1,0.4,0l1.2-0.7c0.1-0.1,0.1-0.2,0-0.2l-1.3-0.8
							c-0.1-0.1-0.3-0.1-0.4,0l-1.2,0.7C63.3,408.6,63.3,408.7,63.4,408.8z"/>
						<path class="st21" d="M61.6,407.7l1.3,0.7c0.1,0.1,0.3,0.1,0.4,0l1.2-0.7c0.1-0.1,0.1-0.2,0-0.2l-1.3-0.7
							c-0.1-0.1-0.3-0.1-0.4,0l-1.2,0.7C61.5,407.5,61.5,407.6,61.6,407.7z"/>
						<path class="st21" d="M59.7,406.7l1.3,0.7c0.1,0.1,0.3,0.1,0.4,0l1.2-0.7c0.1-0.1,0.1-0.2,0-0.2l-1.3-0.7
							c-0.1-0.1-0.3-0.1-0.4,0l-1.2,0.7C59.7,406.5,59.6,406.6,59.7,406.7z"/>
						<path class="st21" d="M57.9,405.6l1.3,0.7c0.1,0.1,0.3,0.1,0.4,0l1.2-0.7c0.1-0.1,0.1-0.2,0-0.2l-1.3-0.7
							c-0.1-0.1-0.3-0.1-0.4,0l-1.2,0.7C57.8,405.5,57.8,405.5,57.9,405.6z"/>
						<path class="st21" d="M56.1,404.6l1.3,0.7c0.1,0.1,0.3,0.1,0.4,0l1.2-0.7c0.1-0.1,0.1-0.2,0-0.2l-1.3-0.7
							c-0.1-0.1-0.3-0.1-0.4,0l-1.2,0.7C56,404.4,56,404.5,56.1,404.6z"/>
						<path class="st21" d="M53.4,403l2.2,1.2c0.1,0.1,0.3,0.1,0.4,0l1.2-0.7c0.1-0.1,0.1-0.2,0-0.2L55,402c-0.1-0.1-0.3-0.1-0.4,0
							l-1.2,0.7C53.3,402.8,53.3,403,53.4,403z"/>
						<path class="st21" d="M73.4,416.6l1.3,0.7c0.1,0.1,0.3,0.1,0.4,0l1.2-0.7c0.1-0.1,0.1-0.2,0-0.2l-1.3-0.7
							c-0.1-0.1-0.3-0.1-0.4,0l-1.2,0.7C73.4,416.4,73.3,416.5,73.4,416.6z"/>
						<path class="st21" d="M71.6,415.6l1.3,0.7c0.1,0.1,0.3,0.1,0.4,0l1.2-0.7c0.1-0.1,0.1-0.2,0-0.2l-1.3-0.7
							c-0.1-0.1-0.3-0.1-0.4,0l-1.2,0.7C71.5,415.4,71.5,415.5,71.6,415.6z"/>
						<path class="st21" d="M69.8,414.5l1.3,0.7c0.1,0.1,0.3,0.1,0.4,0l1.2-0.7c0.1-0.1,0.1-0.2,0-0.2l-1.3-0.7
							c-0.1-0.1-0.3-0.1-0.4,0l-1.2,0.7C69.7,414.3,69.7,414.5,69.8,414.5z"/>
						<path class="st21" d="M68,413.5l1.3,0.7c0.1,0.1,0.3,0.1,0.4,0l1.2-0.7c0.1-0.1,0.1-0.2,0-0.2l-1.3-0.7
							c-0.1-0.1-0.3-0.1-0.4,0l-1.2,0.7C67.9,413.3,67.9,413.4,68,413.5z"/>
						<path class="st21" d="M66.2,412.4l1.3,0.7c0.1,0.1,0.3,0.1,0.4,0l1.2-0.7c0.1-0.1,0.1-0.2,0-0.2l-1.3-0.8
							c-0.1-0.1-0.3-0.1-0.4,0l-1.2,0.7C66.1,412.2,66.1,412.4,66.2,412.4z"/>
						<path class="st21" d="M64.4,411.4l1.3,0.7c0.1,0.1,0.3,0.1,0.4,0l1.2-0.7c0.1-0.1,0.1-0.2,0-0.2l-1.3-0.8
							c-0.1-0.1-0.3-0.1-0.4,0l-1.2,0.7C64.3,411.2,64.3,411.3,64.4,411.4z"/>
						<path class="st21" d="M62.5,410.3l1.3,0.7c0.1,0.1,0.3,0.1,0.4,0l1.2-0.7c0.1-0.1,0.1-0.2,0-0.2l-1.3-0.7
							c-0.1-0.1-0.3-0.1-0.4,0l-1.2,0.7C62.5,410.1,62.4,410.2,62.5,410.3z"/>
						<path class="st21" d="M60.7,409.3L62,410c0.1,0.1,0.3,0.1,0.4,0l1.2-0.7c0.1-0.1,0.1-0.2,0-0.2l-1.3-0.7
							c-0.1-0.1-0.3-0.1-0.4,0l-1.2,0.7C60.6,409.1,60.6,409.2,60.7,409.3z"/>
						<path class="st21" d="M58.9,408.2l1.3,0.7c0.1,0.1,0.3,0.1,0.4,0l1.2-0.7c0.1-0.1,0.1-0.2,0-0.2l-1.3-0.7
							c-0.1-0.1-0.3-0.1-0.4,0l-1.2,0.7C58.8,408,58.8,408.1,58.9,408.2z"/>
						<path class="st21" d="M57.1,407.2l1.3,0.7c0.1,0.1,0.3,0.1,0.4,0l1.2-0.7c0.1-0.1,0.1-0.2,0-0.2l-1.3-0.7
							c-0.1-0.1-0.3-0.1-0.4,0l-1.2,0.7C57,407,57,407.1,57.1,407.2z"/>
						<path class="st21" d="M55.3,406.1l1.3,0.7c0.1,0.1,0.3,0.1,0.4,0l1.2-0.7c0.1-0.1,0.1-0.2,0-0.2l-1.3-0.7
							c-0.1-0.1-0.3-0.1-0.4,0l-1.2,0.7C55.2,406,55.2,406,55.3,406.1z"/>
						<path class="st21" d="M53.5,405.1l1.3,0.7c0.1,0.1,0.3,0.1,0.4,0l1.2-0.7c0.1-0.1,0.1-0.2,0-0.2l-1.3-0.7
							c-0.1-0.1-0.3-0.1-0.4,0l-1.2,0.7C53.4,404.9,53.3,405,53.5,405.1z"/>
						<path class="st21" d="M75.3,417.7l2.2,1.2c0.1,0.1,0.3,0.1,0.4,0l1.2-0.7c0.1-0.1,0.1-0.2,0-0.2l-2.2-1.2
							c-0.1-0.1-0.3-0.1-0.4,0l-1.2,0.7C75.2,417.5,75.2,417.6,75.3,417.7z"/>
						<path class="st21" d="M53.3,403.1l1.3,0.7c0.1,0.1,0.1,0.2,0,0.2l-1.3,0.8c-0.1,0.1-0.3,0.1-0.4,0l-0.1-0.1
							c-0.1-0.1-0.2-0.1-0.4,0l-1.4,0.8c-0.1,0.1-0.3,0.1-0.4,0l-0.8-0.5c-0.1,0-0.1-0.1-0.1-0.2c0,0,0,0,0.1-0.1l1.3-0.7l0.3-0.1
							l0.2-0.1l0.2-0.1l1.1-0.6C53,403,53.2,403,53.3,403.1z"/>
						<path class="st21" d="M70.9,421.2l1.3,0.7c0.1,0.1,0.3,0.1,0.4,0l1.2-0.7c0.1-0.1,0.1-0.2,0-0.2l-1.3-0.7
							c-0.1-0.1-0.3-0.1-0.4,0l-1.2,0.7C70.8,421,70.8,421.1,70.9,421.2z"/>
						<path class="st21" d="M69,420.2l1.3,0.7c0.1,0.1,0.3,0.1,0.4,0l1.2-0.7c0.1-0.1,0.1-0.2,0-0.2l-1.3-0.7
							c-0.1-0.1-0.3-0.1-0.4,0l-1.2,0.7C69,420,68.9,420.1,69,420.2z"/>
						<path class="st21" d="M67.2,419.1l1.3,0.7c0.1,0.1,0.3,0.1,0.4,0l1.2-0.7c0.1-0.1,0.1-0.2,0-0.2l-1.3-0.7
							c-0.1-0.1-0.3-0.1-0.4,0l-1.2,0.7C67.1,419,67.1,419.1,67.2,419.1z"/>
						<path class="st21" d="M51.8,410.2l1.3,0.7c0.1,0.1,0.3,0.1,0.4,0l1.2-0.7c0.1-0.1,0.1-0.2,0-0.2l-1.3-0.7
							c-0.1-0.1-0.3-0.1-0.4,0l-1.2,0.7C51.7,410,51.7,410.1,51.8,410.2z"/>
						<path class="st21" d="M50,409.2l1.3,0.7c0.1,0.1,0.3,0.1,0.4,0l1.2-0.7c0.1-0.1,0.1-0.2,0-0.2l-1.3-0.7
							c-0.1-0.1-0.3-0.1-0.4,0l-1.2,0.7C49.9,409,49.9,409.1,50,409.2z"/>
						<path class="st21" d="M48.2,408.1l1.3,0.7c0.1,0.1,0.3,0.1,0.4,0l1.2-0.7c0.1-0.1,0.1-0.2,0-0.2l-1.3-0.7
							c-0.1-0.1-0.3-0.1-0.4,0l-1.2,0.7C48.1,408,48.1,408.1,48.2,408.1z"/>
						<path class="st21" d="M46.4,407.1l1.3,0.8c0.1,0.1,0.3,0.1,0.4,0l1.2-0.7c0.1-0.1,0.1-0.2,0-0.2l-1.3-0.8
							c-0.1-0.1-0.3-0.1-0.4,0l-1.2,0.7C46.3,406.9,46.3,407,46.4,407.1z"/>
						<path class="st21" d="M65,417.8l1.8,1c0.1,0.1,0.3,0.1,0.4,0l1.2-0.7c0.1-0.1,0.1-0.2,0-0.2l-1.8-1c-0.1-0.1-0.3-0.1-0.4,0
							l-1.2,0.7C64.9,417.6,64.8,417.7,65,417.8z"/>
						<path class="st21" d="M53.6,411.3l1.8,1c0.1,0.1,0.3,0.1,0.4,0l1.2-0.7c0.1-0.1,0.1-0.2,0-0.2l-1.8-1c-0.1-0.1-0.3-0.1-0.4,0
							l-1.2,0.7C53.5,411.1,53.5,411.2,53.6,411.3z"/>
						<path class="st21" d="M55.9,412.6l8.5,4.9c0.1,0.1,0.3,0.1,0.4,0l1.2-0.7c0.1-0.1,0.1-0.2,0-0.2l-8.5-4.9
							c-0.1-0.1-0.3-0.1-0.4,0l-1.2,0.7C55.8,412.4,55.8,412.5,55.9,412.6z"/>
						<path class="st21" d="M71.2,417.3l1.3,0.7c0.1,0.1,0.3,0.1,0.4,0l1.2-0.7c0.1-0.1,0.1-0.2,0-0.2l-1.3-0.7
							c-0.1-0.1-0.3-0.1-0.4,0l-1.2,0.7C71.1,417.2,71.1,417.3,71.2,417.3z"/>
						<path class="st21" d="M69.4,416.3l1.3,0.7c0.1,0.1,0.3,0.1,0.4,0l1.2-0.7c0.1-0.1,0.1-0.2,0-0.2l-1.3-0.8
							c-0.1-0.1-0.3-0.1-0.4,0l-1.2,0.7C69.3,416.1,69.3,416.2,69.4,416.3z"/>
						<path class="st21" d="M67.6,415.2l1.3,0.7c0.1,0.1,0.3,0.1,0.4,0l1.2-0.7c0.1-0.1,0.1-0.2,0-0.2l-1.3-0.7
							c-0.1-0.1-0.3-0.1-0.4,0l-1.2,0.7C67.5,415.1,67.5,415.2,67.6,415.2z"/>
						<path class="st21" d="M65.8,414.2l1.3,0.7c0.1,0.1,0.3,0.1,0.4,0l1.2-0.7c0.1-0.1,0.1-0.2,0-0.2l-1.3-0.7
							c-0.1-0.1-0.3-0.1-0.4,0l-1.2,0.7C65.7,414,65.7,414.1,65.8,414.2z"/>
						<path class="st21" d="M63.9,413.1l1.3,0.7c0.1,0.1,0.3,0.1,0.4,0l1.2-0.7c0.1-0.1,0.1-0.2,0-0.2l-1.3-0.7
							c-0.1-0.1-0.3-0.1-0.4,0l-1.2,0.7C63.8,413,63.8,413.1,63.9,413.1z"/>
						<path class="st21" d="M62.1,412.1l1.3,0.7c0.1,0.1,0.3,0.1,0.4,0l1.2-0.7c0.1-0.1,0.1-0.2,0-0.2l-1.3-0.7
							c-0.1-0.1-0.3-0.1-0.4,0l-1.2,0.7C62,411.9,62,412,62.1,412.1z"/>
						<path class="st21" d="M60.3,411l1.3,0.7c0.1,0.1,0.3,0.1,0.4,0l1.2-0.7c0.1-0.1,0.1-0.2,0-0.2l-1.2-0.8
							c-0.1-0.1-0.3-0.1-0.4,0l-1.2,0.7C60.2,410.9,60.2,411,60.3,411z"/>
						<path class="st21" d="M58.5,410l1.3,0.7c0.1,0.1,0.3,0.1,0.4,0l1.2-0.7c0.1-0.1,0.1-0.2,0-0.2l-1.3-0.7
							c-0.1-0.1-0.3-0.1-0.4,0l-1.2,0.7C58.4,409.8,58.4,410,58.5,410z"/>
						<path class="st21" d="M56.7,409l1.3,0.7c0.1,0.1,0.3,0.1,0.4,0l1.2-0.7c0.1-0.1,0.1-0.2,0-0.2l-1.3-0.8
							c-0.1-0.1-0.3-0.1-0.4,0l-1.2,0.7C56.6,408.8,56.6,408.9,56.7,409z"/>
						<path class="st21" d="M54.9,407.9l1.3,0.7c0.1,0.1,0.3,0.1,0.4,0l1.2-0.7c0.1-0.1,0.1-0.2,0-0.2l-1.2-0.7
							c-0.1-0.1-0.3-0.1-0.4,0l-1.2,0.7C54.8,407.8,54.8,407.9,54.9,407.9z"/>
						<path class="st21" d="M53,406.9l1.3,0.7c0.1,0.1,0.3,0.1,0.4,0l1.2-0.7c0.1-0.1,0.1-0.2,0-0.2l-1.3-0.7
							c-0.1-0.1-0.3-0.1-0.4,0l-1.2,0.7C53,406.7,53,406.8,53,406.9z"/>
						<path class="st21" d="M51.2,405.8l1.3,0.7c0.1,0.1,0.3,0.1,0.4,0l1.2-0.7c0.1-0.1,0.1-0.2,0-0.2l-1.3-0.7
							c-0.1-0.1-0.3-0.1-0.4,0l-1.2,0.7C51.2,405.6,51.1,405.8,51.2,405.8z"/>
						<path class="st21" d="M73,418.4l2.7,1.5c0.1,0.1,0.3,0.1,0.4,0l1.2-0.7c0.1-0.1,0.1-0.2,0-0.2l-2.7-1.5
							c-0.1-0.1-0.3-0.1-0.4,0l-1.2,0.7C72.9,418.2,72.9,418.3,73,418.4z"/>
						<path class="st21" d="M70.3,418.9l1.3,0.8c0.1,0.1,0.3,0.1,0.4,0l1.2-0.7c0.1-0.1,0.1-0.2,0-0.2l-1.2-0.8
							c-0.1-0.1-0.3-0.1-0.4,0l-1.2,0.7C70.2,418.7,70.2,418.8,70.3,418.9z"/>
						<path class="st21" d="M68.5,417.8l1.3,0.7c0.1,0.1,0.3,0.1,0.4,0l1.2-0.7c0.1-0.1,0.1-0.2,0-0.2l-1.3-0.7
							c-0.1-0.1-0.3-0.1-0.4,0l-1.2,0.7C68.4,417.7,68.4,417.8,68.5,417.8z"/>
						<path class="st21" d="M66.7,416.8l1.3,0.7c0.1,0.1,0.3,0.1,0.4,0l1.2-0.7c0.1-0.1,0.1-0.2,0-0.2l-1.3-0.7
							c-0.1-0.1-0.3-0.1-0.4,0l-1.2,0.7C66.6,416.6,66.6,416.7,66.7,416.8z"/>
						<path class="st21" d="M64.9,415.7l1.3,0.7c0.1,0.1,0.3,0.1,0.4,0l1.2-0.7c0.1-0.1,0.1-0.2,0-0.2l-1.3-0.7
							c-0.1-0.1-0.3-0.1-0.4,0l-1.2,0.7C64.8,415.6,64.8,415.7,64.9,415.7z"/>
						<path class="st21" d="M63.1,414.7l1.3,0.7c0.1,0.1,0.3,0.1,0.4,0l1.2-0.7c0.1-0.1,0.1-0.2,0-0.2l-1.3-0.7
							c-0.1-0.1-0.3-0.1-0.4,0l-1.2,0.7C63,414.5,63,414.6,63.1,414.7z"/>
						<path class="st21" d="M61.3,413.6l1.3,0.7c0.1,0.1,0.3,0.1,0.4,0l1.2-0.7c0.1-0.1,0.1-0.2,0-0.2l-1.3-0.7
							c-0.1-0.1-0.3-0.1-0.4,0l-1.2,0.7C61.2,413.5,61.2,413.6,61.3,413.6z"/>
						<path class="st21" d="M59.5,412.6l1.3,0.7c0.1,0.1,0.3,0.1,0.4,0l1.2-0.7c0.1-0.1,0.1-0.2,0-0.2l-1.3-0.7
							c-0.1-0.1-0.3-0.1-0.4,0l-1.2,0.7C59.4,412.4,59.3,412.5,59.5,412.6z"/>
						<path class="st21" d="M57.6,411.5l1.3,0.7c0.1,0.1,0.3,0.1,0.4,0l1.2-0.7c0.1-0.1,0.1-0.2,0-0.2l-1.3-0.7
							c-0.1-0.1-0.3-0.1-0.4,0l-1.2,0.7C57.5,411.4,57.5,411.5,57.6,411.5z"/>
						<path class="st21" d="M55.8,410.5l1.3,0.7c0.1,0.1,0.3,0.1,0.4,0l1.2-0.7c0.1-0.1,0.1-0.2,0-0.2l-1.3-0.7
							c-0.1-0.1-0.3-0.1-0.4,0l-1.2,0.7C55.7,410.3,55.7,410.4,55.8,410.5z"/>
						<path class="st21" d="M54,409.5l1.3,0.7c0.1,0.1,0.3,0.1,0.4,0l1.2-0.7c0.1-0.1,0.1-0.2,0-0.2l-1.3-0.7
							c-0.1-0.1-0.3-0.1-0.4,0l-1.2,0.7C53.9,409.3,53.9,409.4,54,409.5z"/>
						<path class="st21" d="M52.2,408.4l1.3,0.7c0.1,0.1,0.3,0.1,0.4,0l1.2-0.7c0.1-0.1,0.1-0.2,0-0.2l-1.3-0.7
							c-0.1-0.1-0.3-0.1-0.4,0l-1.2,0.7C52.1,408.2,52.1,408.3,52.2,408.4z"/>
						<path class="st21" d="M48.1,406.1l3.5,2c0.1,0.1,0.3,0.1,0.4,0l1.2-0.7c0.1-0.1,0.1-0.2,0-0.2l-3.5-2c-0.1-0.1-0.3-0.1-0.4,0
							l-1.2,0.7C48,405.9,48,406,48.1,406.1z"/>
						<path class="st21" d="M72.2,419.9l1.8,1c0.1,0.1,0.3,0.1,0.4,0l1.2-0.7c0.1-0.1,0.1-0.2,0-0.2l-1.8-1c-0.1-0.1-0.3-0.1-0.4,0
							l-1.2,0.7C72.1,419.8,72,419.9,72.2,419.9z"/>
					</g>
					<g id="_Группа_6">
						<g id="_Группа_7">
							<g id="_Группа_8">
								<path id="_Контур_8" class="st18" d="M85.4,416.3L85.4,416.3l-29.1-16.8v-22.9l0.2-0.5l0.2-0.1l0,0
									c0.6-0.4,1.4-0.4,2,0l26.6,15.4c0.6,0.4,1,1,1,1.7v21.5C86.3,415.7,86.1,416,85.4,416.3z"/>
								<path id="_Контур_9" class="st18" d="M82.8,394.1l-26.4-16.8v-0.8l0.2-0.5l0.2-0.1c0.6-0.4,1.4-0.4,2,0l26.6,15.4
									c0.3,0.2,0.6,0.5,0.8,0.8L82.8,394.1z"/>
								<path id="_Контур_10" class="st22" d="M57,376.1l28,16.1c0.3,0.2,0.5,0.5,0.5,0.9v23.2l-29.1-16.8v-23
									c0-0.2,0.2-0.5,0.4-0.5C56.9,376,56.9,376.1,57,376.1z"/>
								<path id="_Контур_11" class="st19" d="M57,376.1l28,16.1c0.3,0.2,0.5,0.5,0.5,0.9v23.2l-29.1-16.8v-23
									c0-0.2,0.2-0.5,0.4-0.5C56.9,376,56.9,376.1,57,376.1z"/>
								<polygon id="_Контур_12" class="st23" points="85.4,416.3 85.4,415.5 56.3,398.7 56.3,399.5 								"/>
							</g>
							<polygon id="_Контур_13" class="st24" points="57.1,398.3 57.1,377.3 57.5,377.5 57.5,398.1 							"/>
							<polygon id="_Контур_14" class="st21" points="57.5,377.5 57.5,398.1 84.5,413.7 84.5,393.1 							"/>
							<polygon id="_Контур_15" class="st25" points="57.1,398.3 84.5,414.1 84.5,413.7 57.5,398.1 							"/>
						</g>
					</g>
				</g>
			</g>
			<path id="_Контур_16" class="st19" d="M25.7,372.5c-0.7,1.7,1.1,3.8,5.8,5.3s5.1-0.4,5.1-0.4c3.1,1.4,6.2,3,9.1,4.7
				c2.8,2,4.1,7.7,4.4,17.3c0.4,11.1,0.5,27.7,0.1,30.5c0,0-5.3,5.2-12,4.7s-18.1-6.5-20.8-11.1c0.1-9.8,1.2-11.4-0.4-17
				c-3.6-12.9-5.5-18.1-3.8-26.7c1.4-7,3.5-7.9,6.3-7.9C21.7,371.9,23.7,372.1,25.7,372.5z"/>
			<path id="_Контур_17" class="st16" d="M61.3,411.3c-5.5,1.4-6.8-2.1-7.5-5c-1.7-7-2.7-13.3-4-17.3
				c-1.5-4.7-3.2-5.4-5.4-6.3c-2.7-1.1-5,1.2-4.1,7.1c1,7,2.4,12,5.1,20.3c0.7,2.2,2.2,6,4.5,7.9c2.9,2.3,7.2,2.2,13.7,0.6
				c2.8-0.7,5.8-2.4,11-4.8c1.4-0.6,2.5-1.1,5.2-2.4c2.7-1.2,5.1-3.1,6.9-5.4c1.4-2,1.6-3,1.3-3.5s-1-0.5-1.8,0.4
				c-1.1,1.5-2.5,2.7-4,3.7c0,0,1.7-1.8,2.7-3c0.9-1,1.6-2.2,2.2-3.4c0.5-1.2-0.5-2.8-1.3-2s-1.2,1.7-2.6,3.4
				c-0.8,0.9-1.6,1.7-2.6,2.4c0.9-1.2,1.7-2.5,2.4-3.8c0.6-1,0.9-2.2,0.9-3.4c0-0.6-0.9-1.4-1.8-0.2s-1.2,2.7-3,4.5
				c-1.3,1.3-2.3,2.1-2.4,1.7s0.8-1.1,1.2-2.6s0-3.1-0.8-3.3s-0.7-0.1-1.3,1.3s-1.7,2.5-2.5,4.6c-0.4,1.5-1.2,2.8-2.3,3.9
				C69.5,408.4,66.5,410,61.3,411.3z"/>
			<path id="_Контур_18" class="st17" d="M42.2,381.7c3.7-0.5,6.3,1.1,7.9,6.7s2.8,10.2,2.8,10.2c-1.5,2.1-3.7,3.6-6.2,4.1
				c-4.4,1.1-6-1-6-1s-1.2-5.9-2-9.9S37.7,382.4,42.2,381.7z"/>
			<path class="st21" d="M44,353.1c0,0,5.8-8.9-6.8-10.7c-9.1-1.3-15,4.5-15.6,10.9c-0.6,6.1,3.1,12.4,5.8,14.9
				c1.3,0.5,4.1,0.7,7.9-1c0.2-1.7,0.2-3.3,0.2-5C35.4,362.2,31,352.9,44,353.1z"/>
		</g>
		<polygon class="st13" points="69.3,465.3 69.3,438.7 48.2,451 56.3,467.9 		"/>
		<polygon class="st0" points="55.5,440.2 63.6,435.5 69.3,438.8 60.9,443.6 		"/>
	</g>
</g>
</svg>
